<svg width="100" height="100" viewBox="0 0 100 100" fill="none" xmlns="http://www.w3.org/2000/svg">
<path fill-rule="evenodd" clip-rule="evenodd" d="M3 2.31428C3 1.20971 3.89543 0.314285 5 0.314285H64.1H64.7714V0.321C82.6317 0.678534 97 15.2685 97 33.2143C97 51.3845 82.2702 66.1143 64.1 66.1143C53.1387 66.1143 49.0494 56.6 47.5299 45.0615C47.3868 47.2048 47.3149 49.5093 47.3143 51.9829L47.3143 52.0143L47.3143 97.6857C47.3143 98.7903 46.4189 99.6857 45.3143 99.6857H29.1714C28.0669 99.6857 27.1714 98.7903 27.1714 97.6857V20.4571H27.1714V25.8282C27.1713 21.7999 24.4856 20.4571 21.8 20.4571L5 20.4571C3.89543 20.4571 3 19.5617 3 18.4571V2.31428ZM64.1 20.4571C63.7998 20.4571 63.4972 20.4675 63.1929 20.4879C56.001 21.4668 51.2522 25.8229 48.9464 35.2039C50.5505 42.5569 57.6135 45.9714 64.1 45.9714C71.1456 45.9714 76.8571 40.2599 76.8571 33.2143C76.8571 26.1687 71.1456 20.4571 64.1 20.4571Z" fill="white"/>
<path fill-rule="evenodd" clip-rule="evenodd" d="M3 2.31428C3 1.20971 3.89543 0.314285 5 0.314285H64.1H64.7714V0.321C82.6317 0.678534 97 15.2685 97 33.2143C97 51.3845 82.2702 66.1143 64.1 66.1143C53.1387 66.1143 49.0494 56.6 47.5299 45.0615C47.3868 47.2048 47.3149 49.5093 47.3143 51.9829L47.3143 52.0143L47.3143 97.6857C47.3143 98.7903 46.4189 99.6857 45.3143 99.6857H29.1714C28.0669 99.6857 27.1714 98.7903 27.1714 97.6857V20.4571H27.1714V25.8282C27.1713 21.7999 24.4856 20.4571 21.8 20.4571L5 20.4571C3.89543 20.4571 3 19.5617 3 18.4571V2.31428ZM64.1 20.4571C63.7998 20.4571 63.4972 20.4675 63.1929 20.4879C56.001 21.4668 51.2522 25.8229 48.9464 35.2039C50.5505 42.5569 57.6135 45.9714 64.1 45.9714C71.1456 45.9714 76.8571 40.2599 76.8571 33.2143C76.8571 26.1687 71.1456 20.4571 64.1 20.4571Z" fill="url(#paint0_angular_2_130)" fill-opacity="0.33"/>
<path fill-rule="evenodd" clip-rule="evenodd" d="M3 2.31428C3 1.20971 3.89543 0.314285 5 0.314285H64.1H64.7714V0.321C82.6317 0.678534 97 15.2685 97 33.2143C97 51.3845 82.2702 66.1143 64.1 66.1143C53.1387 66.1143 49.0494 56.6 47.5299 45.0615C47.3868 47.2048 47.3149 49.5093 47.3143 51.9829L47.3143 52.0143L47.3143 97.6857C47.3143 98.7903 46.4189 99.6857 45.3143 99.6857H29.1714C28.0669 99.6857 27.1714 98.7903 27.1714 97.6857V20.4571H27.1714V25.8282C27.1713 21.7999 24.4856 20.4571 21.8 20.4571L5 20.4571C3.89543 20.4571 3 19.5617 3 18.4571V2.31428ZM64.1 20.4571C63.7998 20.4571 63.4972 20.4675 63.1929 20.4879C56.001 21.4668 51.2522 25.8229 48.9464 35.2039C50.5505 42.5569 57.6135 45.9714 64.1 45.9714C71.1456 45.9714 76.8571 40.2599 76.8571 33.2143C76.8571 26.1687 71.1456 20.4571 64.1 20.4571Z" fill="url(#paint1_linear_2_130)" fill-opacity="0.67"/>
<path d="M49 35C49 35 48.5 43 63.5 46.5C66.9576 47.3068 57.7115 61.5128 53.913 60.9856C50.421 60.501 47.5 45 47.5 45C47.5 45 47.9193 37.7353 49 35Z" fill="url(#paint2_linear_2_130)" fill-opacity="0.37"/>
<defs>
<radialGradient id="paint0_angular_2_130" cx="0" cy="0" r="1" gradientUnits="userSpaceOnUse" gradientTransform="translate(27.1714 25.1571) rotate(90) scale(74.5286 111.113)">
<stop stop-color="#03B7FF"/>
<stop offset="1" stop-color="#0028F0"/>
</radialGradient>
<linearGradient id="paint1_linear_2_130" x1="3" y1="7.22995" x2="64.0934" y2="111.965" gradientUnits="userSpaceOnUse">
<stop stop-opacity="0"/>
<stop offset="1"/>
</linearGradient>
<linearGradient id="paint2_linear_2_130" x1="45.699" y1="35.9693" x2="52.2119" y2="37.8464" gradientUnits="userSpaceOnUse">
<stop/>
<stop offset="1" stop-opacity="0"/>
</linearGradient>
</defs>
</svg>
